{"title":"Turbo.Kid.2015.HDRip.x264-MenaceIISociety","uid":12341293,"size":1006943921,"categoryP":"video","categoryS":"movies","magnet":"?xt=urn:btih:a49b3bfc4931acd03ef442dbfb34067cb361a9d9&amp;dn=Turbo.Kid.2015.HDRip.x264-MenaceIISociety&amp;tr=udp%3A%2F%2Ftracker.openbittorrent.com%3A80&amp;tr=udp%3A%2F%2Fopen.demonii.com%3A1337&amp;tr=udp%3A%2F%2Ftracker.coppersurfer.tk%3A6969&amp;tr=udp%3A%2F%2Fexodus.desync.com%3A6969","seeders":0,"leechers":0,"uploader":"TvTeam","files":4,"time":1441303926,"description":"------------------------------------------------------------------------\n\n &lt;a href=&quot; https://www.torrenting.com&quot; rel=&quot;nofollow&quot; target=&quot;_NEW&quot;&gt; https://www.torrenting.com&lt;/a&gt;\n\nSign up is OPEN - for time being. Come and have fun\n\n.......................................................................................................................[center][img]http://i.imgur.com/HqfalaG.png[/img]\n\nTurbo.Kid.2015.HDRip.x264-MenaceIISociety &lt;a href=&quot;\nhttp://www.imdb.com/title/tt3672742/&quot; rel=&quot;nofollow&quot; target=&quot;_NEW&quot;&gt;\nhttp://www.imdb.com/title/tt3672742/&lt;/a&gt;\n\nSource: 720p WEBDL DD5 1 H.264-JDS [THANKS]\n\nGeneral\nComplete name                            : Turbo.Kid.2015.HDRip.x264-MenaceIISociety.mp4\nFormat                                   : MPEG-4\nFormat profile                           : Base Media\nCodec ID                                 : isom\nFile size                                : 937 MiB\nDuration                                 : 1h 32mn\nOverall bit rate mode                    : Variable\nOverall bit rate                         : 1 413 Kbps\nEncoded date                             : UTC 2015-08-30 18:40:40\nTagged date                              : UTC 2015-08-30 18:40:40\n\nVideo\nID                                       : 1\nFormat                                   : AVC\nFormat/Info                              : Advanced Video Codec\nFormat profile                           : &lt;a class=&quot;__cf_email__&quot; href=&quot;/cdn-cgi/l/email-protection&quot; data-cfemail=&quot;440c2d232c0408706a75&quot;&gt;[email&amp;#160;protected]&lt;/a&gt;&lt;script data-cfhash='f9e31' type=&quot;text/javascript&quot;&gt;\n/* &lt;![CDATA[ */!function(){try{var t=&quot;currentScript&quot;in document?document.currentScript:function(){for(var t=document.getElementsByTagName(&quot;script&quot;),e=t.length;e--;)if(t[e].getAttribute(&quot;data-cfhash&quot;))return t[e]}();if(t&amp;&amp;t.previousSibling){var e,r,n,i,c=t.previousSibling,a=c.getAttribute(&quot;data-cfemail&quot;);if(a){for(e=&quot;&quot;,r=parseInt(a.substr(0,2),16),n=2;a.length-n;n+=2)i=parseInt(a.substr(n,2),16)^r,e+=String.fromCharCode(i);e=document.createTextNode(e),c.parentNode.replaceChild(e,c)}t.parentNode.removeChild(t);}}catch(u){}}()/* ]]&gt; */&lt;/script&gt;\nFormat settings, CABAC                   : Yes\nFormat settings, ReFrames                : 3 frames\nFormat settings, GOP                     : M=4, N=23\nCodec ID                                 : avc1\nCodec ID/Info                            : Advanced Video Coding\nDuration                                 : 1h 32mn\nBit rate mode                            : Variable\nBit rate                                 : 1 065 Kbps\nMaximum bit rate                         : 40.0 Mbps\nWidth                                    : 720 pixels\nHeight                                   : 304 pixels\nDisplay aspect ratio                     : 2.35:1\nFrame rate mode                          : Constant\nFrame rate                               : 23.976 fps\nColor space                              : YUV\nChroma subsampling                       : 4:2:0\nBit depth                                : 8 bits\nScan type                                : Progressive\nBits/(Pixel*Frame)                       : 0.203\nStream size                              : 706 MiB (75%)\nWriting library                          : x264 core 148 r2597 e86f3a1\n\nAudio\nID                                       : 2\nFormat                                   : AAC\nFormat/Info                              : Advanced Audio Codec\nFormat profile                           : LC\nCodec ID                                 : 40\nDuration                                 : 1h 32mn\nBit rate mode                            : Variable\nBit rate                                 : 344 Kbps\nMaximum bit rate                         : 417 Kbps\nChannel(s)                               : 6 channels\nChannel positions                        : Front: L C R, Side: L R, LFE\nSampling rate                            : 48.0 KHz\nCompression mode                         : Lossy\nStream size                              : 228 MiB (24%)\nLanguage                                 : English\nEncoded date                             : UTC 2015-08-30 17:23:10\nTagged date                              : UTC 2015-08-30 18:42:23\n\n[img]http://s9.postimg.org/lxd0lyf8f/vlcsnap_2015_08_30_20h49m57s086.jpg[/img]\n[img]http://s9.postimg.org/60e8p8mu7/vlcsnap_2015_08_30_20h56m30s596.jpg[/img]\n[img]http://s9.postimg.org/4b9quwwin/vlcsnap_2015_08_30_20h59m00s481.jpg[/img]\n[img]http://s9.postimg.org/98nbg0yhr/vlcsnap_2015_08_30_20h59m08s891.jpg[/img]\n[img]http://s9.postimg.org/o75qagdjz/vlcsnap_2015_08_30_21h02m18s531.jpg[/img]\n[img]http://s9.postimg.org/q08myryqn/vlcsnap_2015_08_30_21h02m28s051.jpg[/img] \n \n[img]http://s17.postimg.org/r1iiyw8yn/Untitled_1.png[/img][/center]","torrent":{"xt":"urn:btih:a49b3bfc4931acd03ef442dbfb34067cb361a9d9","amp;dn":"Turbo.Kid.2015.HDRip.x264-MenaceIISociety","amp;tr":["udp%3A%2F%2Ftracker.openbittorrent.com%3A80","udp%3A%2F%2Fopen.demonii.com%3A1337","udp%3A%2F%2Ftracker.coppersurfer.tk%3A6969","udp%3A%2F%2Fexodus.desync.com%3A6969"],"infoHash":"a49b3bfc4931acd03ef442dbfb34067cb361a9d9","infoHashBuffer":{"type":"Buffer","data":[164,155,59,252,73,49,172,208,62,244,66,219,251,52,6,124,179,97,169,217]},"announce":[],"urlList":[]}}